<svg version="1.1" xmlns="http://www.w3.org/2000/svg" xmlns:xlink="http://www.w3.org/1999/xlink" width="1024" height="1024" viewBox="-112,119,1024,1024"><g id="document" fill="#ffffff" fill-rule="nonzero" stroke="#000000" stroke-width="0" stroke-linecap="butt" stroke-linejoin="miter" stroke-miterlimit="10" stroke-dasharray="" stroke-dashoffset="0" font-family="none" font-weight="none" font-size="none" text-anchor="none" style="mix-blend-mode: normal"><rect x="-76.5625" y="81.34766" transform="scale(1.46286,1.46286)" width="700" height="700" id="Shape 1 1" vector-effect="non-scaling-stroke"/></g><g fill="none" fill-rule="nonzero" stroke="none" stroke-width="none" stroke-linecap="none" stroke-linejoin="none" stroke-miterlimit="10" stroke-dasharray="" stroke-dashoffset="0" font-family="none" font-weight="none" font-size="none" text-anchor="none" style="mix-blend-mode: normal"><g id="stage"><g id="layer1 1"><path d="M402.21228,623.77666c0,0 -437.90739,-77.08683 -226.90618,-145.52489" id="Path 1" fill="none" stroke="#7597b6" stroke-width="5" stroke-linecap="round" stroke-linejoin="round"/><path d="" id="Path 1" fill="none" stroke="#000000" stroke-width="1" stroke-linecap="round" stroke-linejoin="round"/><path d="M451.74767,287.84211c27.03616,-23.99802 56.618,-33.53849 70.35525,18.60431" id="Path 1" fill-opacity="0" fill="#ffffff" stroke="#7597b6" stroke-width="5" stroke-linecap="round" stroke-linejoin="round"/><path d="M397.87188,346.8922c9.70405,-12.88018 35.68536,-45.72131 63.262,-66.68327" id="Path 1" fill-opacity="0" fill="#ffffff" stroke="#7597b6" stroke-width="5" stroke-linecap="round" stroke-linejoin="round"/><path d="M555.67445,539.91942c0,0 -84.45479,-114.9097 -142.42063,-106.16047" id="Path 1" fill="none" stroke="#7597b6" stroke-width="5" stroke-linecap="round" stroke-linejoin="round"/><path d="M400.47973,351.55144c0,0 -115.87015,-4.4401 -109.55175,55.71501" id="Path 1" fill="none" stroke="#7597b6" stroke-width="5" stroke-linecap="round" stroke-linejoin="round"/><path d="M181.31977,457.7272c39.43754,-128.33228 170.42457,-201.93756 292.56773,-164.40199c122.14315,37.53557 189.18931,171.99803 149.75177,300.33031c-39.43754,128.33228 -170.42457,201.93756 -292.56773,164.40199c-122.14315,-37.53557 -189.18931,-171.99803 -149.75177,-300.33031z" id="Path 1" fill-opacity="0" fill="#000000" stroke="#c0d2e2" stroke-width="15" stroke-linecap="round" stroke-linejoin="round"/><path d="M549.32839,536.01642c2.27271,-3.6953 6.95633,-4.94348 10.46116,-2.78792c3.50484,2.15557 4.50367,6.89863 2.23096,10.59392c-2.27271,3.6953 -6.95633,4.94348 -10.46116,2.78792c-3.50484,-2.15557 -4.50367,-6.89863 -2.23096,-10.59392z" id="Path 1" fill="#c0d2e2" stroke="#c0d2e2" stroke-width="1" stroke-linecap="round" stroke-linejoin="round"/><path d="M284.14801,412.46404c1.17403,-3.82037 5.04964,-6.01886 8.65642,-4.91047c3.60678,1.10839 5.5789,5.10394 4.40488,8.92432c-1.17403,3.82037 -5.04964,6.01886 -8.65642,4.91047c-3.60678,-1.10839 -5.5789,-5.10394 -4.40488,-8.92432z" id="Path 1" fill="#c0d2e2" stroke="#c0d2e2" stroke-width="1" stroke-linecap="round" stroke-linejoin="round"/><path d="M407.19923,429.5598c2.17835,-3.54188 6.65499,-4.74597 9.99884,-2.68941c3.34386,2.05656 4.28868,6.595 2.11033,10.13688c-2.17835,3.54188 -6.65499,4.74597 -9.99884,2.68941c-3.34386,-2.05656 -4.28868,-6.595 -2.11033,-10.13688z" id="Path 1" fill="#c0d2e2" stroke="#c0d2e2" stroke-width="1" stroke-linecap="round" stroke-linejoin="round"/><path d="M472.40084,414.10586" id="Path 1" fill="none" stroke="#000000" stroke-width="1" stroke-linecap="round" stroke-linejoin="round"/><path d="M610.12632,397.17428" id="Path 1" fill="#a2bbd1" stroke="#a2bbd1" stroke-width="1" stroke-linecap="round" stroke-linejoin="round"/><path d="M587.04137,415.71251" id="Path 1" fill="none" stroke="#000000" stroke-width="1" stroke-linecap="round" stroke-linejoin="round"/><path d="M558.93812,453.64836" id="Path 1" fill="none" stroke="#000000" stroke-width="1" stroke-linecap="round" stroke-linejoin="round"/><path d="M608.3628,391.9556c48.64068,-25.70428 26.19185,19.89022 4.91366,54.40853c-11.20698,18.18041 -22.08926,33.28831 -22.08926,33.28831" id="Path 1" fill-opacity="0" fill="#ffffff" stroke="#7597b6" stroke-width="5" stroke-linecap="none" stroke-linejoin="none"/><path d="M581.45829,480.6162c1.22145,-3.97469 5.43377,-6.20663 9.40846,-4.98518c3.97469,1.22145 6.20663,5.43377 4.98518,9.40846c-1.22145,3.97469 -5.43377,6.20663 -9.40846,4.98518c-3.97469,-1.22145 -6.20663,-5.43377 -4.98518,-9.40846z" id="Path 1" fill="#c0d2e2" stroke="#c0d2e2" stroke-width="1" stroke-linecap="round" stroke-linejoin="round"/><path d="M289.58458,641.90443" id="Path 1" fill="none" stroke="#000000" stroke-width="1" stroke-linecap="round" stroke-linejoin="round"/><path d="M506.42495,732.90465" id="Path 1" fill="none" stroke="#000000" stroke-width="1" stroke-linecap="round" stroke-linejoin="round"/><path d="M388.88188,351.94868c1.22145,-3.97469 5.25362,-6.26199 9.00609,-5.10883c3.75247,1.15316 5.80426,5.31011 4.58281,9.28481c-1.22145,3.97469 -5.25362,6.26199 -9.00609,5.10883c-3.75247,-1.15316 -5.80426,-5.31011 -4.58281,-9.28481z" id="Path 1" fill="#c0d2e2" stroke="#c0d2e2" stroke-width="1" stroke-linecap="round" stroke-linejoin="round"/><path d="M411.95395,555.9707" id="Path 1" fill="none" stroke="#000000" stroke-width="1" stroke-linecap="round" stroke-linejoin="round"/><path d="M382.67109,670.95818" id="Path 1" fill="none" stroke="#000000" stroke-width="1" stroke-linecap="round" stroke-linejoin="round"/><path d="M386.02918,667.94767" id="Path 1" fill="none" stroke="#000000" stroke-width="1" stroke-linecap="round" stroke-linejoin="round"/><path d="M388.11292,665.92134" id="Path 1" fill="none" stroke="#000000" stroke-width="1" stroke-linecap="round" stroke-linejoin="round"/><path d="M183.60381,432.20407l4.07022,-9.30192l10.27549,4.49623l-4.07022,9.30192z" id="Path 1" fill="#c0d2e2" stroke="#c0d2e2" stroke-width="1" stroke-linecap="round" stroke-linejoin="round"/><path d="M398.28666,623.55308c0.95017,-4.04812 4.81862,-6.60257 8.64042,-5.70552c3.82179,0.89705 6.1497,4.90591 5.19953,8.95403c-0.95017,4.04812 -4.81862,6.60257 -8.64042,5.70552c-3.82179,-0.89705 -6.1497,-4.90591 -5.19953,-8.95403z" id="Path 1" fill="#c0d2e2" stroke="#c0d2e2" stroke-width="1" stroke-linecap="round" stroke-linejoin="round"/><path d="M166.98934,488.51536l4.32963,-18.9932l12.28484,2.80042l-4.32963,18.9932z" id="Path 1" fill="#c0d2e2" stroke="#c0d2e2" stroke-width="1" stroke-linecap="round" stroke-linejoin="round"/><path d="M559.43825,691.55792l12.89903,-14.59803l9.44203,8.34312l-12.89903,14.59803z" id="Path 1" fill="#c0d2e2" stroke="#c0d2e2" stroke-width="1" stroke-linecap="round" stroke-linejoin="round"/><path d="M370.93042,670.0045" id="Path 1" fill="none" stroke="#000000" stroke-width="1" stroke-linecap="round" stroke-linejoin="round"/><path d="M346.79033,658.57654c0,0 294.56511,148.54567 252.3378,-0.8466" id="Path 1" fill="none" stroke="#7597b6" stroke-width="5" stroke-linecap="square" stroke-linejoin="round"/><path d="M587.05607,659.16273l9.90405,-14.53561l9.52803,6.09113l-9.90405,14.53561z" id="Path 1" fill="#c0d2e2" stroke="#c0d2e2" stroke-width="1" stroke-linecap="round" stroke-linejoin="round"/><path d="M341.05565,652.39262c0,0 -114.99314,-15.9769 -84.02745,-112.4732" id="Path 1" fill="none" stroke="#7597b6" stroke-width="5" stroke-linecap="round" stroke-linejoin="round"/><path d="M334.12072,650.51205c0.95017,-4.04812 4.81862,-6.60257 8.64042,-5.70552c3.82179,0.89705 6.1497,4.90591 5.19953,8.95403c-0.95017,4.04812 -4.81862,6.60257 -8.64042,5.70552c-3.82179,-0.89705 -6.1497,-4.90591 -5.19953,-8.95403z" id="Path 1" fill="#c0d2e2" stroke="#c0d2e2" stroke-width="1" stroke-linecap="round" stroke-linejoin="round"/><path d="M252.08725,537.32837c1.22145,-3.79001 5.25362,-5.97104 9.00609,-4.87146c3.75247,1.09958 5.80426,5.06339 4.58281,8.85341c-1.22145,3.79001 -5.25362,5.97104 -9.00609,4.87146c-3.75247,-1.09958 -5.80426,-5.06339 -4.58281,-8.85341z" id="Path 1" fill="#c0d2e2" stroke="#c0d2e2" stroke-width="1" stroke-linecap="round" stroke-linejoin="round"/><path d="M491.26861,640.19399" id="Path 1" fill="none" stroke="#000000" stroke-width="1" stroke-linecap="round" stroke-linejoin="round"/><path d="M493.19298,630.9043c0,0 -16.09899,243.84573 -158.80899,129.23298" id="Path 1" fill="none" stroke="#7597b6" stroke-width="5" stroke-linecap="round" stroke-linejoin="round"/><path d="M484.67647,631.06227c0.95017,-4.04812 4.81862,-6.60257 8.64042,-5.70552c3.82179,0.89705 6.1497,4.90591 5.19953,8.95403c-0.95017,4.04812 -4.81862,6.60257 -8.64042,5.70552c-3.82179,-0.89705 -6.1497,-4.90591 -5.19953,-8.95403z" id="Path 1" fill="#c0d2e2" stroke="#c0d2e2" stroke-width="1" stroke-linecap="round" stroke-linejoin="round"/><path d="M338.58312,767.32015l0.417,-10.93933l15.99741,3.52398l-0.417,10.93933z" id="Path 1" fill="#c0d2e2" stroke="#c0d2e2" stroke-width="1" stroke-linecap="round" stroke-linejoin="round"/><path d="M328.33322,762.26192l1.84979,-10.78986l15.39619,5.59402l-1.84979,10.78986z" id="Path 1" fill="#c0d2e2" stroke="#c0d2e2" stroke-width="1" stroke-linecap="round" stroke-linejoin="round"/><path d="M114.63872,908.61921c0,24.91735 20.30935,45.2267 45.2267,45.2267c24.91735,0 45.2267,-20.30935 45.2267,-45.2267c0,-24.91735 -20.30935,-45.2267 -45.2267,-45.2267c-24.91735,0 -45.2267,20.30935 -45.2267,45.2267zM136.82541,908.61921c0,-12.80001 10.24001,-23.04002 23.04002,-23.04002c12.80001,0 23.04002,10.24001 23.04002,23.04002c0,12.80001 -10.24001,23.04002 -23.04002,23.04002c-12.80001,0 -23.04002,-10.24001 -23.04002,-23.04002zM223.86548,985.41927h22.18668v-38.0587c6.65601,4.096 14.50668,6.48534 23.04002,6.48534c24.91735,0 45.2267,-20.30935 45.2267,-45.2267c0,-24.91735 -20.30935,-45.2267 -45.2267,-45.2267c-8.53334,0 -16.38401,2.38934 -23.04002,6.31467v-3.75467h-22.18668zM246.05216,908.61921c0,-12.80001 10.24001,-23.04002 23.04002,-23.04002c12.80001,0 23.04002,10.24001 23.04002,23.04002c0,12.80001 -10.24001,23.04002 -23.04002,23.04002c-12.80001,0 -23.04002,-10.24001 -23.04002,-23.04002zM326.26556,888.13919h22.18668v27.30669c0,21.16268 17.23735,38.40003 38.40003,38.40003v-22.18668c-8.87467,0 -16.21335,-7.33867 -16.21335,-16.21335v-27.30669h27.30669v-22.18668h-27.30669v-23.89335h-22.18668v23.89335h-22.18668zM415.01229,951.28591h22.18668v-85.3334h-22.18668zM412.45229,842.91249c0,7.50934 6.144,13.65334 13.65334,13.65334c7.50934,0 13.65334,-6.144 13.65334,-13.65334c0,-7.50934 -6.144,-13.65334 -13.65334,-13.65334c-7.50934,0 -13.65334,6.144 -13.65334,13.65334zM532.77238,899.23253c0,-7.50934 6.144,-13.65334 13.65334,-13.65334c7.50934,0 13.65334,6.144 13.65334,13.65334v52.05337h22.18668v-52.05337c0,-19.79735 -16.04268,-35.84003 -35.84003,-35.84003c-9.72801,0 -18.43201,3.92534 -24.74669,10.06934c-6.48534,-6.144 -15.18935,-10.06934 -24.74669,-10.06934c-4.94934,0 -9.55734,1.024 -13.65334,2.73067v-0.17067h-22.18668v85.3334h22.18668v-52.56537c0.17067,-7.33867 6.31467,-13.14134 13.65334,-13.14134c7.50934,0 13.65334,6.144 13.65334,13.65334v52.05337h22.18668zM689.78584,865.95251h-22.18668v3.92534c-6.65601,-4.096 -14.50668,-6.48534 -23.04002,-6.48534c-24.91735,0 -45.2267,20.30935 -45.2267,45.2267c0,24.91735 20.30935,45.2267 45.2267,45.2267c8.53334,0 16.38401,-2.38934 23.04002,-6.31467v3.75467h22.18668zM667.59916,908.61921c0,12.80001 -10.24001,23.04002 -23.04002,23.04002c-12.80001,0 -23.04002,-10.24001 -23.04002,-23.04002c0,-12.80001 10.24001,-23.04002 23.04002,-23.04002c12.80001,0 23.04002,10.24001 23.04002,23.04002z" id="CompoundPath 1" fill="#c0d2e2" stroke="none" stroke-width="1" stroke-linecap="butt" stroke-linejoin="miter"/></g></g></g></svg>